<svg width="192" height="48" viewBox="0 0 192 48" fill="none" xmlns="http://www.w3.org/2000/svg">
<rect width="192" height="48" rx="12" fill="#2A85FF"/>
<path d="M51.21 24.71C52.1904 23.9387 52.906 22.8809 53.2572 21.6839C53.6085 20.487 53.5779 19.2103 53.1698 18.0315C52.7617 16.8527 51.9963 15.8304 50.9801 15.1069C49.9639 14.3833 48.7474 13.9945 47.5 13.9945C46.2525 13.9945 45.0361 14.3833 44.0199 15.1069C43.0037 15.8304 42.2383 16.8527 41.8302 18.0315C41.4221 19.2103 41.3915 20.487 41.7428 21.6839C42.094 22.8809 42.8096 23.9387 43.79 24.71C42.1101 25.383 40.6443 26.4994 39.5489 27.9399C38.4535 29.3805 37.7696 31.0913 37.57 32.89C37.5556 33.0213 37.5671 33.1542 37.604 33.2811C37.6409 33.4079 37.7025 33.5263 37.7851 33.6293C37.952 33.8375 38.1948 33.9708 38.46 34C38.7252 34.0292 38.9912 33.9518 39.1993 33.7849C39.4075 33.618 39.5408 33.3752 39.57 33.11C39.7896 31.1552 40.7217 29.3498 42.1882 28.0388C43.6547 26.7278 45.5529 26.003 47.52 26.003C49.4871 26.003 51.3852 26.7278 52.8518 28.0388C54.3183 29.3498 55.2504 31.1552 55.47 33.11C55.4972 33.3557 55.6144 33.5827 55.7991 33.747C55.9838 33.9114 56.2228 34.0015 56.47 34H56.58C56.8421 33.9698 57.0817 33.8373 57.2466 33.6313C57.4114 33.4252 57.4881 33.1624 57.46 32.9C57.2595 31.0962 56.5719 29.381 55.4708 27.9382C54.3698 26.4954 52.8969 25.3795 51.21 24.71ZM47.5 24C46.7089 24 45.9355 23.7654 45.2777 23.3259C44.6199 22.8864 44.1072 22.2616 43.8045 21.5307C43.5017 20.7998 43.4225 19.9956 43.5769 19.2196C43.7312 18.4437 44.1122 17.731 44.6716 17.1716C45.231 16.6122 45.9437 16.2312 46.7196 16.0769C47.4956 15.9225 48.2998 16.0017 49.0307 16.3045C49.7616 16.6072 50.3863 17.1199 50.8259 17.7777C51.2654 18.4355 51.5 19.2089 51.5 20C51.5 21.0609 51.0786 22.0783 50.3284 22.8284C49.5783 23.5786 48.5609 24 47.5 24Z" fill="white"/>
<path d="M70.3285 29H67.8569L71.6229 18.0909H74.5952L78.3558 29H75.8842L73.1516 20.5838H73.0664L70.3285 29ZM70.174 24.712H76.0121V26.5124H70.174V24.712ZM82.1103 29.1332C81.4888 29.1332 80.926 28.9734 80.4217 28.6538C79.921 28.3306 79.5233 27.8565 79.2286 27.2315C78.9374 26.603 78.7918 25.8324 78.7918 24.9197C78.7918 23.9822 78.9427 23.2028 79.2445 22.5813C79.5464 21.9563 79.9477 21.4893 80.4484 21.1804C80.9526 20.8679 81.5048 20.7116 82.105 20.7116C82.5631 20.7116 82.9448 20.7898 83.2502 20.946C83.5592 21.0987 83.8077 21.2905 83.996 21.5213C84.1877 21.7486 84.3333 21.9723 84.4327 22.1925H84.502V18.0909H86.7658V29H84.5286V27.6896H84.4327C84.3262 27.9169 84.1753 28.1424 83.98 28.3661C83.7882 28.5863 83.5379 28.7692 83.2289 28.9148C82.9235 29.0604 82.5506 29.1332 82.1103 29.1332ZM82.8294 27.3274C83.1952 27.3274 83.5041 27.228 83.7563 27.0291C84.0119 26.8267 84.2072 26.5444 84.3422 26.1822C84.4807 25.82 84.5499 25.3956 84.5499 24.9091C84.5499 24.4226 84.4825 24 84.3475 23.6413C84.2126 23.2827 84.0173 23.0057 83.7616 22.8104C83.5059 22.6151 83.1952 22.5174 82.8294 22.5174C82.4565 22.5174 82.1423 22.6186 81.8866 22.821C81.6309 23.0234 81.4374 23.304 81.306 23.6626C81.1746 24.0213 81.1089 24.4368 81.1089 24.9091C81.1089 25.3849 81.1746 25.8058 81.306 26.1715C81.4409 26.5337 81.6344 26.8178 81.8866 27.0238C82.1423 27.2262 82.4565 27.3274 82.8294 27.3274ZM88.4815 29V20.8182H90.6442V22.2617H90.74C90.9105 21.7823 91.1946 21.4041 91.5923 21.1271C91.99 20.8501 92.4659 20.7116 93.0199 20.7116C93.5809 20.7116 94.0586 20.8519 94.4528 21.1325C94.8469 21.4094 95.1097 21.7859 95.2411 22.2617H95.3263C95.4932 21.793 95.7951 21.4183 96.2319 21.1378C96.6722 20.8537 97.1925 20.7116 97.7926 20.7116C98.5561 20.7116 99.1758 20.9549 99.6516 21.4414C100.131 21.9244 100.371 22.6097 100.371 23.4975V29H98.1069V23.945C98.1069 23.4904 97.9861 23.1495 97.7447 22.9222C97.5032 22.695 97.2013 22.5813 96.8391 22.5813C96.4272 22.5813 96.1058 22.7127 95.875 22.9755C95.6442 23.2347 95.5287 23.5774 95.5287 24.0036V29H93.3288V23.897C93.3288 23.4957 93.2134 23.1761 92.9826 22.9382C92.7553 22.7003 92.4552 22.5813 92.0824 22.5813C91.8302 22.5813 91.603 22.6452 91.4006 22.7731C91.2017 22.8974 91.0437 23.0732 90.9265 23.3004C90.8093 23.5241 90.7507 23.7869 90.7507 24.0888V29H88.4815ZM102.013 29V20.8182H104.282V29H102.013ZM103.153 19.7635C102.816 19.7635 102.526 19.6516 102.285 19.4279C102.047 19.2006 101.928 18.929 101.928 18.6129C101.928 18.3004 102.047 18.0323 102.285 17.8086C102.526 17.5813 102.816 17.4677 103.153 17.4677C103.49 17.4677 103.778 17.5813 104.016 17.8086C104.257 18.0323 104.378 18.3004 104.378 18.6129C104.378 18.929 104.257 19.2006 104.016 19.4279C103.778 19.6516 103.49 19.7635 103.153 19.7635ZM108.219 24.2699V29H105.95V20.8182H108.113V22.2617H108.209C108.39 21.7859 108.693 21.4094 109.119 21.1325C109.546 20.8519 110.062 20.7116 110.67 20.7116C111.238 20.7116 111.733 20.8359 112.156 21.0845C112.578 21.3331 112.907 21.6882 113.141 22.1499C113.375 22.608 113.493 23.1548 113.493 23.7905V29H111.224V24.1953C111.227 23.6946 111.099 23.304 110.84 23.0234C110.581 22.7393 110.224 22.5973 109.769 22.5973C109.464 22.5973 109.194 22.663 108.96 22.7944C108.729 22.9258 108.548 23.1175 108.416 23.3697C108.288 23.6183 108.223 23.9183 108.219 24.2699ZM122.15 29.1598C121.322 29.1598 120.607 28.984 120.003 28.6325C119.403 28.2773 118.939 27.7837 118.613 27.1516C118.286 26.516 118.123 25.7791 118.123 24.9411C118.123 24.0959 118.286 23.3572 118.613 22.7251C118.939 22.0895 119.403 21.5959 120.003 21.2443C120.607 20.8892 121.322 20.7116 122.15 20.7116C122.977 20.7116 123.691 20.8892 124.291 21.2443C124.895 21.5959 125.36 22.0895 125.686 22.7251C126.013 23.3572 126.177 24.0959 126.177 24.9411C126.177 25.7791 126.013 26.516 125.686 27.1516C125.36 27.7837 124.895 28.2773 124.291 28.6325C123.691 28.984 122.977 29.1598 122.15 29.1598ZM122.16 27.402C122.537 27.402 122.851 27.2955 123.103 27.0824C123.355 26.8658 123.545 26.571 123.673 26.1982C123.804 25.8253 123.87 25.4009 123.87 24.9251C123.87 24.4492 123.804 24.0249 123.673 23.652C123.545 23.2791 123.355 22.9844 123.103 22.7678C122.851 22.5511 122.537 22.4428 122.16 22.4428C121.78 22.4428 121.461 22.5511 121.201 22.7678C120.946 22.9844 120.752 23.2791 120.621 23.652C120.493 24.0249 120.429 24.4492 120.429 24.9251C120.429 25.4009 120.493 25.8253 120.621 26.1982C120.752 26.571 120.946 26.8658 121.201 27.0824C121.461 27.2955 121.78 27.402 122.16 27.402ZM126.485 21.5V20.3494C126.485 20.0227 126.549 19.6889 126.676 19.348C126.804 19.0071 126.973 18.6857 127.182 18.3839C127.392 18.082 127.619 17.8299 127.864 17.6275L128.866 18.2188C128.667 18.5312 128.503 18.858 128.376 19.1989C128.251 19.5398 128.189 19.9197 128.189 20.3388V21.5H126.485ZM134.399 20.8182V22.5227H129.472V20.8182H134.399ZM130.591 18.858H132.86V26.4858C132.86 26.6953 132.892 26.8587 132.956 26.9759C133.02 27.0895 133.108 27.1694 133.222 27.2156C133.339 27.2617 133.474 27.2848 133.627 27.2848C133.733 27.2848 133.84 27.2759 133.946 27.2582C134.053 27.2369 134.135 27.2209 134.192 27.2102L134.548 28.8988C134.435 28.9343 134.275 28.9751 134.069 29.0213C133.863 29.071 133.613 29.1012 133.318 29.1119C132.771 29.1332 132.292 29.0604 131.88 28.8935C131.471 28.7266 131.154 28.4673 130.926 28.1158C130.699 27.7642 130.587 27.3203 130.591 26.7841V18.858ZM135.727 29V20.8182H137.997V29H135.727ZM136.867 19.7635C136.53 19.7635 136.241 19.6516 135.999 19.4279C135.761 19.2006 135.642 18.929 135.642 18.6129C135.642 18.3004 135.761 18.0323 135.999 17.8086C136.241 17.5813 136.53 17.4677 136.867 17.4677C137.205 17.4677 137.492 17.5813 137.73 17.8086C137.972 18.0323 138.092 18.3004 138.092 18.6129C138.092 18.929 137.972 19.2006 137.73 19.4279C137.492 19.6516 137.205 19.7635 136.867 19.7635ZM146.472 23.1513L144.394 23.2791C144.359 23.1016 144.283 22.9418 144.165 22.7997C144.048 22.6541 143.894 22.5387 143.702 22.4535C143.514 22.3647 143.288 22.3203 143.025 22.3203C142.674 22.3203 142.377 22.3949 142.136 22.544C141.894 22.6896 141.774 22.8849 141.774 23.13C141.774 23.3253 141.852 23.4904 142.008 23.6254C142.164 23.7603 142.432 23.8686 142.812 23.9503L144.293 24.2486C145.089 24.4119 145.682 24.6747 146.072 25.0369C146.463 25.3991 146.658 25.875 146.658 26.4645C146.658 27.0007 146.5 27.4712 146.184 27.8761C145.872 28.2809 145.442 28.5969 144.895 28.8242C144.352 29.0479 143.725 29.1598 143.015 29.1598C141.932 29.1598 141.069 28.9343 140.426 28.4833C139.787 28.0288 139.412 27.4109 139.302 26.6296L141.534 26.5124C141.601 26.8427 141.765 27.0948 142.024 27.2688C142.283 27.4393 142.615 27.5245 143.02 27.5245C143.418 27.5245 143.737 27.4482 143.979 27.2955C144.224 27.1392 144.348 26.9386 144.352 26.6935C144.348 26.4876 144.261 26.3189 144.091 26.1875C143.92 26.0526 143.658 25.9496 143.302 25.8786L141.886 25.5962C141.087 25.4364 140.492 25.1594 140.101 24.7653C139.714 24.3711 139.521 23.8686 139.521 23.2578C139.521 22.7322 139.663 22.2795 139.947 21.8995C140.234 21.5195 140.637 21.2266 141.156 21.0206C141.678 20.8146 142.289 20.7116 142.988 20.7116C144.022 20.7116 144.835 20.93 145.428 21.3668C146.024 21.8036 146.372 22.3984 146.472 23.1513ZM150.206 24.2699V29H147.937V18.0909H150.142V22.2617H150.238C150.423 21.7788 150.721 21.4006 151.133 21.1271C151.545 20.8501 152.062 20.7116 152.683 20.7116C153.251 20.7116 153.747 20.8359 154.169 21.0845C154.596 21.3295 154.926 21.6829 155.16 22.1445C155.398 22.6026 155.515 23.1513 155.512 23.7905V29H153.243V24.1953C153.246 23.6911 153.118 23.2987 152.859 23.0181C152.603 22.7376 152.245 22.5973 151.783 22.5973C151.474 22.5973 151.201 22.663 150.963 22.7944C150.728 22.9258 150.544 23.1175 150.409 23.3697C150.277 23.6183 150.21 23.9183 150.206 24.2699Z" fill="#FCFCFC"/>
</svg>
