<svg width="192" height="48" viewBox="0 0 192 48" fill="none" xmlns="http://www.w3.org/2000/svg">
<rect width="192" height="48" rx="12" fill="#2A85FF"/>
<path d="M33.71 24.71C34.6904 23.9387 35.406 22.8809 35.7572 21.6839C36.1085 20.487 36.0779 19.2103 35.6698 18.0315C35.2617 16.8527 34.4963 15.8304 33.4801 15.1069C32.4639 14.3833 31.2474 13.9945 30 13.9945C28.7525 13.9945 27.5361 14.3833 26.5199 15.1069C25.5037 15.8304 24.7383 16.8527 24.3302 18.0315C23.9221 19.2103 23.8915 20.487 24.2428 21.6839C24.594 22.8809 25.3096 23.9387 26.29 24.71C24.6101 25.383 23.1443 26.4994 22.0489 27.9399C20.9535 29.3805 20.2696 31.0913 20.07 32.89C20.0556 33.0213 20.0671 33.1542 20.104 33.2811C20.1409 33.4079 20.2025 33.5263 20.2851 33.6293C20.452 33.8375 20.6948 33.9708 20.96 34C21.2252 34.0292 21.4912 33.9518 21.6993 33.7849C21.9075 33.618 22.0408 33.3752 22.07 33.11C22.2896 31.1552 23.2217 29.3498 24.6882 28.0388C26.1547 26.7278 28.0529 26.003 30.02 26.003C31.9871 26.003 33.8852 26.7278 35.3518 28.0388C36.8183 29.3498 37.7504 31.1552 37.97 33.11C37.9972 33.3557 38.1144 33.5827 38.2991 33.747C38.4838 33.9114 38.7228 34.0015 38.97 34H39.08C39.3421 33.9698 39.5817 33.8373 39.7466 33.6313C39.9114 33.4252 39.9881 33.1624 39.96 32.9C39.7595 31.0962 39.0719 29.381 37.9708 27.9382C36.8698 26.4954 35.3969 25.3795 33.71 24.71ZM30 24C29.2089 24 28.4355 23.7654 27.7777 23.3259C27.1199 22.8864 26.6072 22.2616 26.3045 21.5307C26.0017 20.7998 25.9225 19.9956 26.0769 19.2196C26.2312 18.4437 26.6122 17.731 27.1716 17.1716C27.731 16.6122 28.4437 16.2312 29.2196 16.0769C29.9956 15.9225 30.7998 16.0017 31.5307 16.3045C32.2616 16.6072 32.8863 17.1199 33.3259 17.7777C33.7654 18.4355 34 19.2089 34 20C34 21.0609 33.5786 22.0783 32.8284 22.8284C32.0783 23.5786 31.0609 24 30 24Z" fill="white"/>
<path d="M52.8285 29H50.3569L54.1229 18.0909H57.0952L60.8558 29H58.3842L55.6516 20.5838H55.5664L52.8285 29ZM52.674 24.712H58.5121V26.5124H52.674V24.712ZM68.5933 23.1513L66.5159 23.2791C66.4804 23.1016 66.4041 22.9418 66.2869 22.7997C66.1697 22.6541 66.0152 22.5387 65.8235 22.4535C65.6352 22.3647 65.4097 22.3203 65.147 22.3203C64.7954 22.3203 64.4989 22.3949 64.2574 22.544C64.0159 22.6896 63.8952 22.8849 63.8952 23.13C63.8952 23.3253 63.9733 23.4904 64.1296 23.6254C64.2858 23.7603 64.5539 23.8686 64.9339 23.9503L66.4147 24.2486C67.2102 24.4119 67.8032 24.6747 68.1938 25.0369C68.5845 25.3991 68.7798 25.875 68.7798 26.4645C68.7798 27.0007 68.6218 27.4712 68.3057 27.8761C67.9932 28.2809 67.5635 28.5969 67.0166 28.8242C66.4733 29.0479 65.8465 29.1598 65.1363 29.1598C64.0532 29.1598 63.1903 28.9343 62.5475 28.4833C61.9083 28.0288 61.5337 27.4109 61.4236 26.6296L63.6555 26.5124C63.723 26.8427 63.8863 27.0948 64.1455 27.2688C64.4048 27.4393 64.7368 27.5245 65.1416 27.5245C65.5394 27.5245 65.859 27.4482 66.1004 27.2955C66.3455 27.1392 66.4698 26.9386 66.4733 26.6935C66.4698 26.4876 66.3828 26.3189 66.2123 26.1875C66.0419 26.0526 65.7791 25.9496 65.424 25.8786L64.007 25.5962C63.208 25.4364 62.6132 25.1594 62.2226 24.7653C61.8355 24.3711 61.642 23.8686 61.642 23.2578C61.642 22.7322 61.784 22.2795 62.0681 21.8995C62.3558 21.5195 62.7588 21.2266 63.2773 21.0206C63.7993 20.8146 64.4101 20.7116 65.1097 20.7116C66.1431 20.7116 66.9563 20.93 67.5493 21.3668C68.1459 21.8036 68.4939 22.3984 68.5933 23.1513ZM73.7554 29.1598C72.928 29.1598 72.2124 28.984 71.6087 28.6325C71.0086 28.2773 70.5452 27.7837 70.2185 27.1516C69.8918 26.516 69.7284 25.7791 69.7284 24.9411C69.7284 24.0959 69.8918 23.3572 70.2185 22.7251C70.5452 22.0895 71.0086 21.5959 71.6087 21.2443C72.2124 20.8892 72.928 20.7116 73.7554 20.7116C74.5828 20.7116 75.2966 20.8892 75.8967 21.2443C76.5004 21.5959 76.9656 22.0895 77.2923 22.7251C77.619 23.3572 77.7824 24.0959 77.7824 24.9411C77.7824 25.7791 77.619 26.516 77.2923 27.1516C76.9656 27.7837 76.5004 28.2773 75.8967 28.6325C75.2966 28.984 74.5828 29.1598 73.7554 29.1598ZM73.7661 27.402C74.1425 27.402 74.4567 27.2955 74.7089 27.0824C74.961 26.8658 75.151 26.571 75.2788 26.1982C75.4102 25.8253 75.4759 25.4009 75.4759 24.9251C75.4759 24.4492 75.4102 24.0249 75.2788 23.652C75.151 23.2791 74.961 22.9844 74.7089 22.7678C74.4567 22.5511 74.1425 22.4428 73.7661 22.4428C73.3861 22.4428 73.0665 22.5511 72.8072 22.7678C72.5516 22.9844 72.358 23.2791 72.2266 23.652C72.0988 24.0249 72.0349 24.4492 72.0349 24.9251C72.0349 25.4009 72.0988 25.8253 72.2266 26.1982C72.358 26.571 72.5516 26.8658 72.8072 27.0824C73.0665 27.2955 73.3861 27.402 73.7661 27.402ZM85.9154 23.1513L83.838 23.2791C83.8025 23.1016 83.7261 22.9418 83.6089 22.7997C83.4918 22.6541 83.3373 22.5387 83.1455 22.4535C82.9573 22.3647 82.7318 22.3203 82.469 22.3203C82.1175 22.3203 81.821 22.3949 81.5795 22.544C81.338 22.6896 81.2173 22.8849 81.2173 23.13C81.2173 23.3253 81.2954 23.4904 81.4516 23.6254C81.6079 23.7603 81.876 23.8686 82.256 23.9503L83.7368 24.2486C84.5322 24.4119 85.1253 24.6747 85.5159 25.0369C85.9065 25.3991 86.1018 25.875 86.1018 26.4645C86.1018 27.0007 85.9438 27.4712 85.6278 27.8761C85.3153 28.2809 84.8856 28.5969 84.3387 28.8242C83.7954 29.0479 83.1686 29.1598 82.4584 29.1598C81.3753 29.1598 80.5124 28.9343 79.8696 28.4833C79.2304 28.0288 78.8558 27.4109 78.7457 26.6296L80.9776 26.5124C81.045 26.8427 81.2084 27.0948 81.4676 27.2688C81.7268 27.4393 82.0589 27.5245 82.4637 27.5245C82.8614 27.5245 83.181 27.4482 83.4225 27.2955C83.6675 27.1392 83.7918 26.9386 83.7954 26.6935C83.7918 26.4876 83.7048 26.3189 83.5344 26.1875C83.3639 26.0526 83.1011 25.9496 82.746 25.8786L81.3291 25.5962C80.5301 25.4364 79.9353 25.1594 79.5447 24.7653C79.1576 24.3711 78.9641 23.8686 78.9641 23.2578C78.9641 22.7322 79.1061 22.2795 79.3902 21.8995C79.6778 21.5195 80.0809 21.2266 80.5994 21.0206C81.1214 20.8146 81.7322 20.7116 82.4317 20.7116C83.4651 20.7116 84.2783 20.93 84.8714 21.3668C85.468 21.8036 85.816 22.3984 85.9154 23.1513ZM87.3807 29V20.8182H89.6499V29H87.3807ZM88.5207 19.7635C88.1833 19.7635 87.8939 19.6516 87.6524 19.4279C87.4145 19.2006 87.2955 18.929 87.2955 18.6129C87.2955 18.3004 87.4145 18.0323 87.6524 17.8086C87.8939 17.5813 88.1833 17.4677 88.5207 17.4677C88.858 17.4677 89.1457 17.5813 89.3836 17.8086C89.6251 18.0323 89.7458 18.3004 89.7458 18.6129C89.7458 18.929 89.6251 19.2006 89.3836 19.4279C89.1457 19.6516 88.858 19.7635 88.5207 19.7635ZM92.7186 32.0682C92.4309 32.0682 92.161 32.0451 91.9089 31.9989C91.6603 31.9563 91.4544 31.9013 91.291 31.8338L91.8024 30.1399C92.0687 30.2216 92.3084 30.266 92.5215 30.2731C92.7381 30.2802 92.9245 30.2305 93.0808 30.1239C93.2406 30.0174 93.3702 29.8363 93.4696 29.5806L93.6028 29.2344L90.6678 20.8182H93.0542L94.748 26.8267H94.8333L96.5431 20.8182H98.9455L95.7654 29.8842C95.6127 30.3246 95.405 30.7081 95.1422 31.0348C94.883 31.3651 94.5545 31.619 94.1568 31.7965C93.7591 31.9776 93.2797 32.0682 92.7186 32.0682ZM103.379 32.2386C102.644 32.2386 102.014 32.1374 101.488 31.935C100.966 31.7362 100.551 31.4645 100.242 31.12C99.9327 30.7756 99.7321 30.3885 99.6398 29.9588L101.738 29.6765C101.802 29.8398 101.904 29.9925 102.042 30.1346C102.181 30.2766 102.363 30.3903 102.591 30.4755C102.822 30.5643 103.102 30.6087 103.432 30.6087C103.926 30.6087 104.333 30.4879 104.652 30.2464C104.975 30.0085 105.137 29.609 105.137 29.0479V27.5511H105.041C104.942 27.7784 104.792 27.9933 104.594 28.1957C104.395 28.3981 104.139 28.5632 103.827 28.6911C103.514 28.8189 103.141 28.8828 102.708 28.8828C102.094 28.8828 101.534 28.7408 101.03 28.4567C100.529 28.169 100.13 27.7305 99.8315 27.141C99.5368 26.5479 99.3894 25.7987 99.3894 24.8931C99.3894 23.9663 99.5403 23.1921 99.8422 22.5707C100.144 21.9492 100.545 21.484 101.046 21.1751C101.55 20.8661 102.102 20.7116 102.703 20.7116C103.161 20.7116 103.544 20.7898 103.853 20.946C104.162 21.0987 104.411 21.2905 104.599 21.5213C104.791 21.7486 104.938 21.9723 105.041 22.1925H105.126V20.8182H107.379V29.0799C107.379 29.7759 107.209 30.3583 106.868 30.8271C106.527 31.2958 106.055 31.6474 105.451 31.8817C104.851 32.1197 104.16 32.2386 103.379 32.2386ZM103.427 27.1783C103.793 27.1783 104.102 27.0877 104.354 26.9066C104.61 26.7219 104.805 26.4592 104.94 26.1183C105.078 25.7738 105.148 25.3619 105.148 24.8825C105.148 24.4031 105.08 23.9876 104.945 23.636C104.81 23.2809 104.615 23.0057 104.359 22.8104C104.104 22.6151 103.793 22.5174 103.427 22.5174C103.054 22.5174 102.74 22.6186 102.484 22.821C102.229 23.0199 102.035 23.2969 101.904 23.652C101.772 24.0071 101.707 24.4173 101.707 24.8825C101.707 25.3548 101.772 25.7631 101.904 26.1076C102.039 26.4485 102.232 26.7131 102.484 26.9013C102.74 27.0859 103.054 27.1783 103.427 27.1783ZM111.368 29.1545C110.846 29.1545 110.381 29.0639 109.973 28.8828C109.564 28.6982 109.241 28.4265 109.003 28.0678C108.769 27.7056 108.652 27.2546 108.652 26.7148C108.652 26.2603 108.735 25.8786 108.902 25.5696C109.069 25.2607 109.296 25.0121 109.584 24.8239C109.872 24.6357 110.198 24.4936 110.564 24.3977C110.933 24.3018 111.32 24.2344 111.725 24.1953C112.201 24.1456 112.585 24.0994 112.876 24.0568C113.167 24.0107 113.378 23.9432 113.51 23.8544C113.641 23.7656 113.707 23.6342 113.707 23.4602V23.4283C113.707 23.0909 113.6 22.8299 113.387 22.6452C113.178 22.4606 112.879 22.3683 112.492 22.3683C112.084 22.3683 111.759 22.4588 111.517 22.6399C111.276 22.8175 111.116 23.0412 111.038 23.3111L108.939 23.1406C109.046 22.6435 109.255 22.2138 109.568 21.8516C109.88 21.4858 110.283 21.2053 110.777 21.0099C111.274 20.8111 111.85 20.7116 112.503 20.7116C112.957 20.7116 113.392 20.7649 113.808 20.8714C114.227 20.978 114.598 21.1431 114.921 21.3668C115.248 21.5906 115.505 21.8782 115.694 22.2298C115.882 22.5778 115.976 22.995 115.976 23.4815V29H113.824V27.8654H113.76C113.629 28.1211 113.453 28.3466 113.233 28.5419C113.013 28.7337 112.748 28.8846 112.439 28.9947C112.13 29.1012 111.773 29.1545 111.368 29.1545ZM112.018 27.5884C112.352 27.5884 112.647 27.5227 112.902 27.3913C113.158 27.2564 113.359 27.0753 113.504 26.848C113.65 26.6207 113.723 26.3633 113.723 26.0756V25.2074C113.652 25.2536 113.554 25.2962 113.43 25.3352C113.309 25.3707 113.172 25.4045 113.02 25.4364C112.867 25.4648 112.714 25.4915 112.562 25.5163C112.409 25.5376 112.27 25.5572 112.146 25.5749C111.88 25.614 111.647 25.6761 111.448 25.7614C111.249 25.8466 111.095 25.962 110.985 26.1076C110.875 26.2496 110.82 26.4272 110.82 26.6403C110.82 26.9492 110.932 27.1854 111.155 27.3487C111.383 27.5085 111.67 27.5884 112.018 27.5884ZM126.315 32.0682V27.6896H126.245C126.139 27.9169 125.988 28.1424 125.793 28.3661C125.601 28.5863 125.351 28.7692 125.042 28.9148C124.736 29.0604 124.363 29.1332 123.923 29.1332C123.302 29.1332 122.739 28.9734 122.234 28.6538C121.734 28.3306 121.336 27.8565 121.041 27.2315C120.75 26.603 120.604 25.8324 120.604 24.9197C120.604 23.9822 120.755 23.2028 121.057 22.5813C121.359 21.9563 121.76 21.4893 122.261 21.1804C122.765 20.8679 123.318 20.7116 123.918 20.7116C124.376 20.7116 124.758 20.7898 125.063 20.946C125.372 21.0987 125.62 21.2905 125.809 21.5213C126 21.7486 126.146 21.9723 126.245 22.1925H126.341V20.8182H128.579V32.0682H126.315ZM124.642 27.3274C125.008 27.3274 125.317 27.228 125.569 27.0291C125.825 26.8267 126.02 26.5444 126.155 26.1822C126.293 25.82 126.363 25.3956 126.363 24.9091C126.363 24.4226 126.295 24 126.16 23.6413C126.025 23.2827 125.83 23.0057 125.574 22.8104C125.319 22.6151 125.008 22.5174 124.642 22.5174C124.269 22.5174 123.955 22.6186 123.699 22.821C123.444 23.0234 123.25 23.304 123.119 23.6626C122.987 24.0213 122.922 24.4368 122.922 24.9091C122.922 25.3849 122.987 25.8058 123.119 26.1715C123.254 26.5337 123.447 26.8178 123.699 27.0238C123.955 27.2262 124.269 27.3274 124.642 27.3274ZM132.583 29.1545C132.061 29.1545 131.596 29.0639 131.188 28.8828C130.779 28.6982 130.456 28.4265 130.218 28.0678C129.984 27.7056 129.867 27.2546 129.867 26.7148C129.867 26.2603 129.95 25.8786 130.117 25.5696C130.284 25.2607 130.511 25.0121 130.799 24.8239C131.087 24.6357 131.413 24.4936 131.779 24.3977C132.148 24.3018 132.535 24.2344 132.94 24.1953C133.416 24.1456 133.8 24.0994 134.091 24.0568C134.382 24.0107 134.593 23.9432 134.725 23.8544C134.856 23.7656 134.922 23.6342 134.922 23.4602V23.4283C134.922 23.0909 134.815 22.8299 134.602 22.6452C134.393 22.4606 134.094 22.3683 133.707 22.3683C133.299 22.3683 132.974 22.4588 132.733 22.6399C132.491 22.8175 132.331 23.0412 132.253 23.3111L130.154 23.1406C130.261 22.6435 130.47 22.2138 130.783 21.8516C131.095 21.4858 131.498 21.2053 131.992 21.0099C132.489 20.8111 133.065 20.7116 133.718 20.7116C134.172 20.7116 134.608 20.7649 135.023 20.8714C135.442 20.978 135.813 21.1431 136.136 21.3668C136.463 21.5906 136.72 21.8782 136.909 22.2298C137.097 22.5778 137.191 22.995 137.191 23.4815V29H135.039V27.8654H134.975C134.844 28.1211 134.668 28.3466 134.448 28.5419C134.228 28.7337 133.963 28.8846 133.654 28.9947C133.345 29.1012 132.988 29.1545 132.583 29.1545ZM133.233 27.5884C133.567 27.5884 133.862 27.5227 134.117 27.3913C134.373 27.2564 134.574 27.0753 134.719 26.848C134.865 26.6207 134.938 26.3633 134.938 26.0756V25.2074C134.867 25.2536 134.769 25.2962 134.645 25.3352C134.524 25.3707 134.387 25.4045 134.235 25.4364C134.082 25.4648 133.929 25.4915 133.777 25.5163C133.624 25.5376 133.485 25.5572 133.361 25.5749C133.095 25.614 132.862 25.6761 132.663 25.7614C132.464 25.8466 132.31 25.962 132.2 26.1076C132.09 26.2496 132.035 26.4272 132.035 26.6403C132.035 26.9492 132.147 27.1854 132.37 27.3487C132.598 27.5085 132.885 27.5884 133.233 27.5884ZM139.909 32.0682C139.622 32.0682 139.352 32.0451 139.1 31.9989C138.851 31.9563 138.645 31.9013 138.482 31.8338L138.993 30.1399C139.26 30.2216 139.499 30.266 139.712 30.2731C139.929 30.2802 140.115 30.2305 140.272 30.1239C140.431 30.0174 140.561 29.8363 140.66 29.5806L140.794 29.2344L137.859 20.8182H140.245L141.939 26.8267H142.024L143.734 20.8182H146.136L142.956 29.8842C142.804 30.3246 142.596 30.7081 142.333 31.0348C142.074 31.3651 141.745 31.619 141.348 31.7965C140.95 31.9776 140.47 32.0682 139.909 32.0682ZM151.499 20.8182V22.5227H146.572V20.8182H151.499ZM147.691 18.858H149.96V26.4858C149.96 26.6953 149.992 26.8587 150.056 26.9759C150.12 27.0895 150.209 27.1694 150.322 27.2156C150.439 27.2617 150.574 27.2848 150.727 27.2848C150.834 27.2848 150.94 27.2759 151.047 27.2582C151.153 27.2369 151.235 27.2209 151.292 27.2102L151.649 28.8988C151.535 28.9343 151.375 28.9751 151.169 29.0213C150.963 29.071 150.713 29.1012 150.418 29.1119C149.871 29.1332 149.392 29.0604 148.98 28.8935C148.572 28.7266 148.254 28.4673 148.026 28.1158C147.799 27.7642 147.687 27.3203 147.691 26.7841V18.858ZM152.828 29V20.8182H155.097V29H152.828ZM153.968 19.7635C153.63 19.7635 153.341 19.6516 153.099 19.4279C152.861 19.2006 152.742 18.929 152.742 18.6129C152.742 18.3004 152.861 18.0323 153.099 17.8086C153.341 17.5813 153.63 17.4677 153.968 17.4677C154.305 17.4677 154.593 17.5813 154.83 17.8086C155.072 18.0323 155.193 18.3004 155.193 18.6129C155.193 18.929 155.072 19.2006 154.83 19.4279C154.593 19.6516 154.305 19.7635 153.968 19.7635ZM163.572 23.1513L161.495 23.2791C161.459 23.1016 161.383 22.9418 161.266 22.7997C161.148 22.6541 160.994 22.5387 160.802 22.4535C160.614 22.3647 160.388 22.3203 160.126 22.3203C159.774 22.3203 159.478 22.3949 159.236 22.544C158.995 22.6896 158.874 22.8849 158.874 23.13C158.874 23.3253 158.952 23.4904 159.108 23.6254C159.265 23.7603 159.533 23.8686 159.913 23.9503L161.393 24.2486C162.189 24.4119 162.782 24.6747 163.173 25.0369C163.563 25.3991 163.758 25.875 163.758 26.4645C163.758 27.0007 163.6 27.4712 163.284 27.8761C162.972 28.2809 162.542 28.5969 161.995 28.8242C161.452 29.0479 160.825 29.1598 160.115 29.1598C159.032 29.1598 158.169 28.9343 157.526 28.4833C156.887 28.0288 156.512 27.4109 156.402 26.6296L158.634 26.5124C158.702 26.8427 158.865 27.0948 159.124 27.2688C159.383 27.4393 159.716 27.5245 160.12 27.5245C160.518 27.5245 160.838 27.4482 161.079 27.2955C161.324 27.1392 161.448 26.9386 161.452 26.6935C161.448 26.4876 161.361 26.3189 161.191 26.1875C161.021 26.0526 160.758 25.9496 160.403 25.8786L158.986 25.5962C158.187 25.4364 157.592 25.1594 157.201 24.7653C156.814 24.3711 156.621 23.8686 156.621 23.2578C156.621 22.7322 156.763 22.2795 157.047 21.8995C157.334 21.5195 157.738 21.2266 158.256 21.0206C158.778 20.8146 159.389 20.7116 160.088 20.7116C161.122 20.7116 161.935 20.93 162.528 21.3668C163.125 21.8036 163.473 22.3984 163.572 23.1513ZM167.307 24.2699V29H165.037V18.0909H167.243V22.2617H167.339C167.523 21.7788 167.821 21.4006 168.233 21.1271C168.645 20.8501 169.162 20.7116 169.783 20.7116C170.352 20.7116 170.847 20.8359 171.27 21.0845C171.696 21.3295 172.026 21.6829 172.26 22.1445C172.498 22.6026 172.616 23.1513 172.612 23.7905V29H170.343V24.1953C170.346 23.6911 170.218 23.2987 169.959 23.0181C169.704 22.7376 169.345 22.5973 168.883 22.5973C168.574 22.5973 168.301 22.663 168.063 22.7944C167.829 22.9258 167.644 23.1175 167.509 23.3697C167.378 23.6183 167.31 23.9183 167.307 24.2699Z" fill="#FCFCFC"/>
</svg>
