<svg width="192" height="48" viewBox="0 0 192 48" fill="none" xmlns="http://www.w3.org/2000/svg">
<rect width="192" height="48" rx="12" fill="#2A85FF"/>
<path d="M22 17C22 16.4477 21.5523 16 21 16C20.4477 16 20 16.4477 20 17V23H14C13.4477 23 13 23.4477 13 24C13 24.5523 13.4477 25 14 25H20V31C20 31.5523 20.4477 32 21 32C21.5523 32 22 31.5523 22 31V25H28C28.5523 25 29 24.5523 29 24C29 23.4477 28.5523 23 28 23H22V17Z" fill="white"/>
<path d="M41.9482 29V18.0909H44.2546V22.9009H44.3984L48.3242 18.0909H51.0888L47.0405 22.9755L51.1367 29H48.3775L45.3892 24.5149L44.2546 25.8999V29H41.9482ZM54.4304 29.1545C53.9084 29.1545 53.4432 29.0639 53.0348 28.8828C52.6265 28.6982 52.3033 28.4265 52.0654 28.0678C51.831 27.7056 51.7138 27.2546 51.7138 26.7148C51.7138 26.2603 51.7973 25.8786 51.9642 25.5696C52.1311 25.2607 52.3583 25.0121 52.646 24.8239C52.9336 24.6357 53.2603 24.4936 53.6261 24.3977C53.9954 24.3018 54.3825 24.2344 54.7873 24.1953C55.2632 24.1456 55.6467 24.0994 55.9379 24.0568C56.2291 24.0107 56.4404 23.9432 56.5718 23.8544C56.7032 23.7656 56.7689 23.6342 56.7689 23.4602V23.4283C56.7689 23.0909 56.6623 22.8299 56.4493 22.6452C56.2397 22.4606 55.9414 22.3683 55.5544 22.3683C55.146 22.3683 54.8211 22.4588 54.5796 22.6399C54.3381 22.8175 54.1783 23.0412 54.1002 23.3111L52.0015 23.1406C52.108 22.6435 52.3175 22.2138 52.63 21.8516C52.9425 21.4858 53.3456 21.2053 53.8392 21.0099C54.3363 20.8111 54.9116 20.7116 55.565 20.7116C56.0196 20.7116 56.4546 20.7649 56.8701 20.8714C57.2891 20.978 57.6602 21.1431 57.9833 21.3668C58.3101 21.5906 58.5675 21.8782 58.7557 22.2298C58.9439 22.5778 59.038 22.995 59.038 23.4815V29H56.886V27.8654H56.8221C56.6907 28.1211 56.515 28.3466 56.2948 28.5419C56.0746 28.7337 55.8101 28.8846 55.5011 28.9947C55.1922 29.1012 54.8353 29.1545 54.4304 29.1545ZM55.0803 27.5884C55.4141 27.5884 55.7088 27.5227 55.9645 27.3913C56.2202 27.2564 56.4208 27.0753 56.5664 26.848C56.712 26.6207 56.7848 26.3633 56.7848 26.0756V25.2074C56.7138 25.2536 56.6162 25.2962 56.4919 25.3352C56.3711 25.3707 56.2344 25.4045 56.0817 25.4364C55.929 25.4648 55.7763 25.4915 55.6236 25.5163C55.4709 25.5376 55.3324 25.5572 55.2081 25.5749C54.9418 25.614 54.7092 25.6761 54.5103 25.7614C54.3115 25.8466 54.157 25.962 54.0469 26.1076C53.9368 26.2496 53.8818 26.4272 53.8818 26.6403C53.8818 26.9492 53.9936 27.1854 54.2174 27.3487C54.4446 27.5085 54.7323 27.5884 55.0803 27.5884ZM65.0004 20.8182V22.5227H60.0732V20.8182H65.0004ZM61.1918 18.858H63.461V26.4858C63.461 26.6953 63.493 26.8587 63.5569 26.9759C63.6208 27.0895 63.7096 27.1694 63.8232 27.2156C63.9404 27.2617 64.0754 27.2848 64.2281 27.2848C64.3346 27.2848 64.4411 27.2759 64.5477 27.2582C64.6542 27.2369 64.7359 27.2209 64.7927 27.2102L65.1496 28.8988C65.0359 28.9343 64.8761 28.9751 64.6702 29.0213C64.4642 29.071 64.2139 29.1012 63.9191 29.1119C63.3722 29.1332 62.8928 29.0604 62.4809 28.8935C62.0725 28.7266 61.7547 28.4673 61.5274 28.1158C61.3001 27.7642 61.1883 27.3203 61.1918 26.7841V18.858ZM69.9694 29.1598C69.1278 29.1598 68.4033 28.9893 67.7961 28.6484C67.1924 28.304 66.7272 27.8175 66.4005 27.1889C66.0738 26.5568 65.9104 25.8093 65.9104 24.9464C65.9104 24.1048 66.0738 23.3661 66.4005 22.7305C66.7272 22.0948 67.1871 21.5994 67.7801 21.2443C68.3767 20.8892 69.0763 20.7116 69.8788 20.7116C70.4186 20.7116 70.9211 20.7987 71.3863 20.9727C71.855 21.1431 72.2634 21.4006 72.6114 21.745C72.963 22.0895 73.2364 22.5227 73.4317 23.0447C73.6271 23.5632 73.7247 24.1705 73.7247 24.8665V25.4897H66.816V24.0835H71.5887C71.5887 23.7567 71.5177 23.4673 71.3756 23.2152C71.2336 22.9631 71.0365 22.766 70.7844 22.6239C70.5358 22.4783 70.2464 22.4055 69.9161 22.4055C69.5717 22.4055 69.2663 22.4854 68.9999 22.6452C68.7371 22.8015 68.5312 23.0128 68.382 23.2791C68.2329 23.5419 68.1565 23.8349 68.153 24.158V25.495C68.153 25.8999 68.2276 26.2496 68.3767 26.5444C68.5294 26.8391 68.7442 27.0664 69.0212 27.2262C69.2982 27.386 69.6267 27.4659 70.0067 27.4659C70.2588 27.4659 70.4896 27.4304 70.6991 27.3594C70.9087 27.2884 71.088 27.1818 71.2371 27.0398C71.3863 26.8977 71.4999 26.7237 71.5781 26.5178L73.6768 26.6562C73.5702 27.1605 73.3518 27.6009 73.0216 27.9773C72.6949 28.3501 72.2723 28.6413 71.7538 28.8509C71.2389 29.0568 70.6441 29.1598 69.9694 29.1598ZM78.7416 32.2386C78.0065 32.2386 77.3762 32.1374 76.8506 31.935C76.3286 31.7362 75.9131 31.4645 75.6042 31.12C75.2952 30.7756 75.0946 30.3885 75.0023 29.9588L77.101 29.6765C77.1649 29.8398 77.2661 29.9925 77.4046 30.1346C77.5431 30.2766 77.726 30.3903 77.9533 30.4755C78.1841 30.5643 78.4646 30.6087 78.7949 30.6087C79.2885 30.6087 79.6951 30.4879 80.0147 30.2464C80.3379 30.0085 80.4994 29.609 80.4994 29.0479V27.5511H80.4036C80.3041 27.7784 80.155 27.9933 79.9561 28.1957C79.7572 28.3981 79.5016 28.5632 79.1891 28.6911C78.8766 28.8189 78.5037 28.8828 78.0705 28.8828C77.4561 28.8828 76.8968 28.7408 76.3925 28.4567C75.8918 28.169 75.4923 27.7305 75.194 27.141C74.8993 26.5479 74.7519 25.7987 74.7519 24.8931C74.7519 23.9663 74.9028 23.1921 75.2047 22.5707C75.5065 21.9492 75.9078 21.484 76.4085 21.1751C76.9128 20.8661 77.465 20.7116 78.0651 20.7116C78.5232 20.7116 78.9067 20.7898 79.2157 20.946C79.5246 21.0987 79.7732 21.2905 79.9614 21.5213C80.1532 21.7486 80.3006 21.9723 80.4036 22.1925H80.4888V20.8182H82.742V29.0799C82.742 29.7759 82.5715 30.3583 82.2306 30.8271C81.8897 31.2958 81.4174 31.6474 80.8137 31.8817C80.2136 32.1197 79.5229 32.2386 78.7416 32.2386ZM78.7896 27.1783C79.1553 27.1783 79.4643 27.0877 79.7164 26.9066C79.9721 26.7219 80.1674 26.4592 80.3023 26.1183C80.4408 25.7738 80.5101 25.3619 80.5101 24.8825C80.5101 24.4031 80.4426 23.9876 80.3077 23.636C80.1727 23.2809 79.9774 23.0057 79.7217 22.8104C79.4661 22.6151 79.1553 22.5174 78.7896 22.5174C78.4167 22.5174 78.1024 22.6186 77.8467 22.821C77.5911 23.0199 77.3975 23.2969 77.2661 23.652C77.1347 24.0071 77.069 24.4173 77.069 24.8825C77.069 25.3548 77.1347 25.7631 77.2661 26.1076C77.4011 26.4485 77.5946 26.7131 77.8467 26.9013C78.1024 27.0859 78.4167 27.1783 78.7896 27.1783ZM88.0945 29.1598C87.267 29.1598 86.5515 28.984 85.9478 28.6325C85.3477 28.2773 84.8842 27.7837 84.5575 27.1516C84.2308 26.516 84.0675 25.7791 84.0675 24.9411C84.0675 24.0959 84.2308 23.3572 84.5575 22.7251C84.8842 22.0895 85.3477 21.5959 85.9478 21.2443C86.5515 20.8892 87.267 20.7116 88.0945 20.7116C88.9219 20.7116 89.6357 20.8892 90.2358 21.2443C90.8395 21.5959 91.3047 22.0895 91.6314 22.7251C91.9581 23.3572 92.1214 24.0959 92.1214 24.9411C92.1214 25.7791 91.9581 26.516 91.6314 27.1516C91.3047 27.7837 90.8395 28.2773 90.2358 28.6325C89.6357 28.984 88.9219 29.1598 88.0945 29.1598ZM88.1051 27.402C88.4815 27.402 88.7958 27.2955 89.0479 27.0824C89.3001 26.8658 89.4901 26.571 89.6179 26.1982C89.7493 25.8253 89.815 25.4009 89.815 24.9251C89.815 24.4492 89.7493 24.0249 89.6179 23.652C89.4901 23.2791 89.3001 22.9844 89.0479 22.7678C88.7958 22.5511 88.4815 22.4428 88.1051 22.4428C87.7251 22.4428 87.4055 22.5511 87.1463 22.7678C86.8906 22.9844 86.6971 23.2791 86.5657 23.652C86.4379 24.0249 86.3739 24.4492 86.3739 24.9251C86.3739 25.4009 86.4379 25.8253 86.5657 26.1982C86.6971 26.571 86.8906 26.8658 87.1463 27.0824C87.4055 27.2955 87.7251 27.402 88.1051 27.402ZM93.4469 29V20.8182H95.6469V22.2457H95.7321C95.8812 21.7379 96.1316 21.3544 96.4832 21.0952C96.8347 20.8324 97.2396 20.701 97.6977 20.701C97.8113 20.701 97.9338 20.7081 98.0652 20.7223C98.1966 20.7365 98.312 20.756 98.4114 20.7809V22.7944C98.3049 22.7624 98.1575 22.734 97.9693 22.7092C97.7811 22.6843 97.6089 22.6719 97.4526 22.6719C97.1188 22.6719 96.8205 22.7447 96.5577 22.8903C96.2985 23.0323 96.0925 23.2312 95.9398 23.4869C95.7907 23.7425 95.7161 24.0373 95.7161 24.3711V29H93.4469ZM99.4346 29V20.8182H101.704V29H99.4346ZM100.575 19.7635C100.237 19.7635 99.9478 19.6516 99.7063 19.4279C99.4684 19.2006 99.3494 18.929 99.3494 18.6129C99.3494 18.3004 99.4684 18.0323 99.7063 17.8086C99.9478 17.5813 100.237 17.4677 100.575 17.4677C100.912 17.4677 101.2 17.5813 101.437 17.8086C101.679 18.0323 101.8 18.3004 101.8 18.6129C101.8 18.929 101.679 19.2006 101.437 19.4279C101.2 19.6516 100.912 19.7635 100.575 19.7635ZM104.772 32.0682C104.485 32.0682 104.215 32.0451 103.963 31.9989C103.714 31.9563 103.508 31.9013 103.345 31.8338L103.856 30.1399C104.123 30.2216 104.362 30.266 104.575 30.2731C104.792 30.2802 104.978 30.2305 105.135 30.1239C105.294 30.0174 105.424 29.8363 105.524 29.5806L105.657 29.2344L102.722 20.8182H105.108L106.802 26.8267H106.887L108.597 20.8182H110.999L107.819 29.8842C107.667 30.3246 107.459 30.7081 107.196 31.0348C106.937 31.3651 106.608 31.619 106.211 31.7965C105.813 31.9776 105.334 32.0682 104.772 32.0682ZM114.124 29.1545C113.602 29.1545 113.137 29.0639 112.728 28.8828C112.32 28.6982 111.997 28.4265 111.759 28.0678C111.525 27.7056 111.407 27.2546 111.407 26.7148C111.407 26.2603 111.491 25.8786 111.658 25.5696C111.825 25.2607 112.052 25.0121 112.34 24.8239C112.627 24.6357 112.954 24.4936 113.32 24.3977C113.689 24.3018 114.076 24.2344 114.481 24.1953C114.957 24.1456 115.34 24.0994 115.631 24.0568C115.923 24.0107 116.134 23.9432 116.265 23.8544C116.397 23.7656 116.462 23.6342 116.462 23.4602V23.4283C116.462 23.0909 116.356 22.8299 116.143 22.6452C115.933 22.4606 115.635 22.3683 115.248 22.3683C114.84 22.3683 114.515 22.4588 114.273 22.6399C114.032 22.8175 113.872 23.0412 113.794 23.3111L111.695 23.1406C111.802 22.6435 112.011 22.2138 112.324 21.8516C112.636 21.4858 113.039 21.2053 113.533 21.0099C114.03 20.8111 114.605 20.7116 115.259 20.7116C115.713 20.7116 116.148 20.7649 116.564 20.8714C116.983 20.978 117.354 21.1431 117.677 21.3668C118.004 21.5906 118.261 21.8782 118.449 22.2298C118.637 22.5778 118.732 22.995 118.732 23.4815V29H116.58V27.8654H116.516C116.384 28.1211 116.209 28.3466 115.988 28.5419C115.768 28.7337 115.504 28.8846 115.195 28.9947C114.886 29.1012 114.529 29.1545 114.124 29.1545ZM114.774 27.5884C115.108 27.5884 115.402 27.5227 115.658 27.3913C115.914 27.2564 116.114 27.0753 116.26 26.848C116.406 26.6207 116.478 26.3633 116.478 26.0756V25.2074C116.407 25.2536 116.31 25.2962 116.185 25.3352C116.065 25.3707 115.928 25.4045 115.775 25.4364C115.623 25.4648 115.47 25.4915 115.317 25.5163C115.164 25.5376 115.026 25.5572 114.902 25.5749C114.635 25.614 114.403 25.6761 114.204 25.7614C114.005 25.8466 113.851 25.962 113.74 26.1076C113.63 26.2496 113.575 26.4272 113.575 26.6403C113.575 26.9492 113.687 27.1854 113.911 27.3487C114.138 27.5085 114.426 27.5884 114.774 27.5884ZM129.07 32.0682V27.6896H129.001C128.895 27.9169 128.744 28.1424 128.548 28.3661C128.357 28.5863 128.106 28.7692 127.797 28.9148C127.492 29.0604 127.119 29.1332 126.679 29.1332C126.057 29.1332 125.494 28.9734 124.99 28.6538C124.489 28.3306 124.092 27.8565 123.797 27.2315C123.506 26.603 123.36 25.8324 123.36 24.9197C123.36 23.9822 123.511 23.2028 123.813 22.5813C124.115 21.9563 124.516 21.4893 125.017 21.1804C125.521 20.8679 126.073 20.7116 126.673 20.7116C127.131 20.7116 127.513 20.7898 127.819 20.946C128.128 21.0987 128.376 21.2905 128.564 21.5213C128.756 21.7486 128.902 21.9723 129.001 22.1925H129.097V20.8182H131.334V32.0682H129.07ZM127.398 27.3274C127.764 27.3274 128.072 27.228 128.325 27.0291C128.58 26.8267 128.776 26.5444 128.911 26.1822C129.049 25.82 129.118 25.3956 129.118 24.9091C129.118 24.4226 129.051 24 128.916 23.6413C128.781 23.2827 128.586 23.0057 128.33 22.8104C128.074 22.6151 127.764 22.5174 127.398 22.5174C127.025 22.5174 126.711 22.6186 126.455 22.821C126.199 23.0234 126.006 23.304 125.874 23.6626C125.743 24.0213 125.677 24.4368 125.677 24.9091C125.677 25.3849 125.743 25.8058 125.874 26.1715C126.009 26.5337 126.203 26.8178 126.455 27.0238C126.711 27.2262 127.025 27.3274 127.398 27.3274ZM136.703 29.1598C135.875 29.1598 135.16 28.984 134.556 28.6325C133.956 28.2773 133.492 27.7837 133.166 27.1516C132.839 26.516 132.676 25.7791 132.676 24.9411C132.676 24.0959 132.839 23.3572 133.166 22.7251C133.492 22.0895 133.956 21.5959 134.556 21.2443C135.16 20.8892 135.875 20.7116 136.703 20.7116C137.53 20.7116 138.244 20.8892 138.844 21.2443C139.448 21.5959 139.913 22.0895 140.24 22.7251C140.566 23.3572 140.73 24.0959 140.73 24.9411C140.73 25.7791 140.566 26.516 140.24 27.1516C139.913 27.7837 139.448 28.2773 138.844 28.6325C138.244 28.984 137.53 29.1598 136.703 29.1598ZM136.713 27.402C137.09 27.402 137.404 27.2955 137.656 27.0824C137.908 26.8658 138.098 26.571 138.226 26.1982C138.357 25.8253 138.423 25.4009 138.423 24.9251C138.423 24.4492 138.357 24.0249 138.226 23.652C138.098 23.2791 137.908 22.9844 137.656 22.7678C137.404 22.5511 137.09 22.4428 136.713 22.4428C136.333 22.4428 136.014 22.5511 135.755 22.7678C135.499 22.9844 135.305 23.2791 135.174 23.652C135.046 24.0249 134.982 24.4492 134.982 24.9251C134.982 25.4009 135.046 25.8253 135.174 26.1982C135.305 26.571 135.499 26.8658 135.755 27.0824C136.014 27.2955 136.333 27.402 136.713 27.402ZM143.957 18.0909V19.2415C143.957 19.5682 143.893 19.902 143.765 20.2429C143.641 20.5803 143.474 20.8999 143.264 21.2017C143.055 21.5 142.826 21.7539 142.577 21.9634L141.576 21.3722C141.753 21.0916 141.91 20.7809 142.044 20.44C142.183 20.0991 142.252 19.7031 142.252 19.2521V18.0909H143.957ZM151.1 23.1513L149.023 23.2791C148.987 23.1016 148.911 22.9418 148.794 22.7997C148.677 22.6541 148.522 22.5387 148.33 22.4535C148.142 22.3647 147.917 22.3203 147.654 22.3203C147.302 22.3203 147.006 22.3949 146.764 22.544C146.523 22.6896 146.402 22.8849 146.402 23.13C146.402 23.3253 146.48 23.4904 146.637 23.6254C146.793 23.7603 147.061 23.8686 147.441 23.9503L148.922 24.2486C149.717 24.4119 150.31 24.6747 150.701 25.0369C151.091 25.3991 151.287 25.875 151.287 26.4645C151.287 27.0007 151.129 27.4712 150.813 27.8761C150.5 28.2809 150.071 28.5969 149.524 28.8242C148.98 29.0479 148.354 29.1598 147.643 29.1598C146.56 29.1598 145.697 28.9343 145.055 28.4833C144.415 28.0288 144.041 27.4109 143.931 26.6296L146.163 26.5124C146.23 26.8427 146.393 27.0948 146.653 27.2688C146.912 27.4393 147.244 27.5245 147.649 27.5245C148.046 27.5245 148.366 27.4482 148.607 27.2955C148.853 27.1392 148.977 26.9386 148.98 26.6935C148.977 26.4876 148.89 26.3189 148.719 26.1875C148.549 26.0526 148.286 25.9496 147.931 25.8786L146.514 25.5962C145.715 25.4364 145.12 25.1594 144.73 24.7653C144.343 24.3711 144.149 23.8686 144.149 23.2578C144.149 22.7322 144.291 22.2795 144.575 21.8995C144.863 21.5195 145.266 21.2266 145.784 21.0206C146.306 20.8146 146.917 20.7116 147.617 20.7116C148.65 20.7116 149.463 20.93 150.056 21.3668C150.653 21.8036 151.001 22.3984 151.1 23.1513ZM154.835 24.2699V29H152.566V18.0909H154.771V22.2617H154.867C155.051 21.7788 155.35 21.4006 155.762 21.1271C156.174 20.8501 156.69 20.7116 157.312 20.7116C157.88 20.7116 158.375 20.8359 158.798 21.0845C159.224 21.3295 159.554 21.6829 159.789 22.1445C160.027 22.6026 160.144 23.1513 160.14 23.7905V29H157.871V24.1953C157.875 23.6911 157.747 23.2987 157.488 23.0181C157.232 22.7376 156.873 22.5973 156.412 22.5973C156.103 22.5973 155.829 22.663 155.591 22.7944C155.357 22.9258 155.172 23.1175 155.037 23.3697C154.906 23.6183 154.838 23.9183 154.835 24.2699ZM161.776 29V20.8182H164.045V29H161.776ZM162.916 19.7635C162.579 19.7635 162.289 19.6516 162.048 19.4279C161.81 19.2006 161.691 18.929 161.691 18.6129C161.691 18.3004 161.81 18.0323 162.048 17.8086C162.289 17.5813 162.579 17.4677 162.916 17.4677C163.253 17.4677 163.541 17.5813 163.779 17.8086C164.02 18.0323 164.141 18.3004 164.141 18.6129C164.141 18.929 164.02 19.2006 163.779 19.4279C163.541 19.6516 163.253 19.7635 162.916 19.7635ZM172.52 23.1513L170.443 23.2791C170.408 23.1016 170.331 22.9418 170.214 22.7997C170.097 22.6541 169.942 22.5387 169.751 22.4535C169.562 22.3647 169.337 22.3203 169.074 22.3203C168.723 22.3203 168.426 22.3949 168.185 22.544C167.943 22.6896 167.822 22.8849 167.822 23.13C167.822 23.3253 167.9 23.4904 168.057 23.6254C168.213 23.7603 168.481 23.8686 168.861 23.9503L170.342 24.2486C171.137 24.4119 171.73 24.6747 172.121 25.0369C172.512 25.3991 172.707 25.875 172.707 26.4645C172.707 27.0007 172.549 27.4712 172.233 27.8761C171.92 28.2809 171.491 28.5969 170.944 28.8242C170.4 29.0479 169.774 29.1598 169.063 29.1598C167.98 29.1598 167.117 28.9343 166.475 28.4833C165.835 28.0288 165.461 27.4109 165.351 26.6296L167.583 26.5124C167.65 26.8427 167.813 27.0948 168.073 27.2688C168.332 27.4393 168.664 27.5245 169.069 27.5245C169.467 27.5245 169.786 27.4482 170.028 27.2955C170.273 27.1392 170.397 26.9386 170.4 26.6935C170.397 26.4876 170.31 26.3189 170.139 26.1875C169.969 26.0526 169.706 25.9496 169.351 25.8786L167.934 25.5962C167.135 25.4364 166.54 25.1594 166.15 24.7653C165.763 24.3711 165.569 23.8686 165.569 23.2578C165.569 22.7322 165.711 22.2795 165.995 21.8995C166.283 21.5195 166.686 21.2266 167.204 21.0206C167.726 20.8146 168.337 20.7116 169.037 20.7116C170.07 20.7116 170.883 20.93 171.476 21.3668C172.073 21.8036 172.421 22.3984 172.52 23.1513ZM176.255 24.2699V29H173.986V18.0909H176.191V22.2617H176.287C176.472 21.7788 176.77 21.4006 177.182 21.1271C177.594 20.8501 178.11 20.7116 178.732 20.7116C179.3 20.7116 179.795 20.8359 180.218 21.0845C180.644 21.3295 180.974 21.6829 181.209 22.1445C181.447 22.6026 181.564 23.1513 181.56 23.7905V29H179.291V24.1953C179.295 23.6911 179.167 23.2987 178.908 23.0181C178.652 22.7376 178.293 22.5973 177.832 22.5973C177.523 22.5973 177.249 22.663 177.011 22.7944C176.777 22.9258 176.592 23.1175 176.457 23.3697C176.326 23.6183 176.259 23.9183 176.255 24.2699Z" fill="#FCFCFC"/>
</svg>
