<svg width="192" height="48" viewBox="0 0 192 48" fill="none" xmlns="http://www.w3.org/2000/svg">
<rect width="192" height="48" rx="12" fill="#2A85FF"/>
<path d="M30.5 17C30.5 16.4477 30.0523 16 29.5 16C28.9477 16 28.5 16.4477 28.5 17V23H22.5C21.9477 23 21.5 23.4477 21.5 24C21.5 24.5523 21.9477 25 22.5 25H28.5V31C28.5 31.5523 28.9477 32 29.5 32C30.0523 32 30.5 31.5523 30.5 31V25H36.5C37.0523 25 37.5 24.5523 37.5 24C37.5 23.4477 37.0523 23 36.5 23H30.5V17Z" fill="white"/>
<path d="M50.4482 18.0909H53.2926L56.2969 25.4205H56.4247L59.429 18.0909H62.2734V29H60.0362V21.8995H59.9457L57.1225 28.9467H55.5991L52.7759 21.8729H52.6854V29H50.4482V18.0909ZM66.3142 29.1545C65.7922 29.1545 65.327 29.0639 64.9186 28.8828C64.5102 28.6982 64.1871 28.4265 63.9492 28.0678C63.7148 27.7056 63.5976 27.2546 63.5976 26.7148C63.5976 26.2603 63.6811 25.8786 63.848 25.5696C64.0149 25.2607 64.2421 25.0121 64.5298 24.8239C64.8174 24.6357 65.1441 24.4936 65.5099 24.3977C65.8792 24.3018 66.2663 24.2344 66.6711 24.1953C67.147 24.1456 67.5305 24.0994 67.8217 24.0568C68.1129 24.0107 68.3242 23.9432 68.4556 23.8544C68.587 23.7656 68.6526 23.6342 68.6526 23.4602V23.4283C68.6526 23.0909 68.5461 22.8299 68.333 22.6452C68.1235 22.4606 67.8252 22.3683 67.4382 22.3683C67.0298 22.3683 66.7048 22.4588 66.4634 22.6399C66.2219 22.8175 66.0621 23.0412 65.984 23.3111L63.8852 23.1406C63.9918 22.6435 64.2013 22.2138 64.5138 21.8516C64.8263 21.4858 65.2294 21.2053 65.723 21.0099C66.2201 20.8111 66.7954 20.7116 67.4488 20.7116C67.9034 20.7116 68.3384 20.7649 68.7539 20.8714C69.1729 20.978 69.544 21.1431 69.8671 21.3668C70.1938 21.5906 70.4513 21.8782 70.6395 22.2298C70.8277 22.5778 70.9218 22.995 70.9218 23.4815V29H68.7698V27.8654H68.7059C68.5745 28.1211 68.3987 28.3466 68.1786 28.5419C67.9584 28.7337 67.6938 28.8846 67.3849 28.9947C67.0759 29.1012 66.7191 29.1545 66.3142 29.1545ZM66.9641 27.5884C67.2979 27.5884 67.5926 27.5227 67.8483 27.3913C68.104 27.2564 68.3046 27.0753 68.4502 26.848C68.5958 26.6207 68.6686 26.3633 68.6686 26.0756V25.2074C68.5976 25.2536 68.4999 25.2962 68.3757 25.3352C68.2549 25.3707 68.1182 25.4045 67.9655 25.4364C67.8128 25.4648 67.6601 25.4915 67.5074 25.5163C67.3547 25.5376 67.2162 25.5572 67.0919 25.5749C66.8256 25.614 66.593 25.6761 66.3941 25.7614C66.1953 25.8466 66.0408 25.962 65.9307 26.1076C65.8206 26.2496 65.7656 26.4272 65.7656 26.6403C65.7656 26.9492 65.8774 27.1854 66.1012 27.3487C66.3284 27.5085 66.6161 27.5884 66.9641 27.5884ZM79.3398 23.1513L77.2624 23.2791C77.2269 23.1016 77.1506 22.9418 77.0334 22.7997C76.9162 22.6541 76.7617 22.5387 76.5699 22.4535C76.3817 22.3647 76.1562 22.3203 75.8934 22.3203C75.5419 22.3203 75.2454 22.3949 75.0039 22.544C74.7624 22.6896 74.6417 22.8849 74.6417 23.13C74.6417 23.3253 74.7198 23.4904 74.876 23.6254C75.0323 23.7603 75.3004 23.8686 75.6804 23.9503L77.1612 24.2486C77.9567 24.4119 78.5497 24.6747 78.9403 25.0369C79.3309 25.3991 79.5263 25.875 79.5263 26.4645C79.5263 27.0007 79.3682 27.4712 79.0522 27.8761C78.7397 28.2809 78.31 28.5969 77.7631 28.8242C77.2198 29.0479 76.593 29.1598 75.8828 29.1598C74.7997 29.1598 73.9368 28.9343 73.294 28.4833C72.6548 28.0288 72.2802 27.4109 72.1701 26.6296L74.402 26.5124C74.4694 26.8427 74.6328 27.0948 74.892 27.2688C75.1513 27.4393 75.4833 27.5245 75.8881 27.5245C76.2858 27.5245 76.6055 27.4482 76.8469 27.2955C77.092 27.1392 77.2162 26.9386 77.2198 26.6935C77.2162 26.4876 77.1292 26.3189 76.9588 26.1875C76.7883 26.0526 76.5256 25.9496 76.1704 25.8786L74.7535 25.5962C73.9545 25.4364 73.3597 25.1594 72.9691 24.7653C72.582 24.3711 72.3885 23.8686 72.3885 23.2578C72.3885 22.7322 72.5305 22.2795 72.8146 21.8995C73.1023 21.5195 73.5053 21.2266 74.0238 21.0206C74.5458 20.8146 75.1566 20.7116 75.8562 20.7116C76.8895 20.7116 77.7028 20.93 78.2958 21.3668C78.8924 21.8036 79.2404 22.3984 79.3398 23.1513ZM83.0743 24.2699V29H80.8051V18.0909H83.0104V22.2617H83.1063C83.2909 21.7788 83.5892 21.4006 84.0012 21.1271C84.4131 20.8501 84.9298 20.7116 85.5512 20.7116C86.1194 20.7116 86.6148 20.8359 87.0374 21.0845C87.4635 21.3295 87.7938 21.6829 88.0282 22.1445C88.2661 22.6026 88.3833 23.1513 88.3797 23.7905V29H86.1105V24.1953C86.1141 23.6911 85.9863 23.2987 85.727 23.0181C85.4713 22.7376 85.1127 22.5973 84.651 22.5973C84.3421 22.5973 84.0686 22.663 83.8307 22.7944C83.5963 22.9258 83.4117 23.1175 83.2767 23.3697C83.1453 23.6183 83.0779 23.9183 83.0743 24.2699ZM90.0155 29V20.8182H92.2847V29H90.0155ZM91.1554 19.7635C90.8181 19.7635 90.5286 19.6516 90.2872 19.4279C90.0492 19.2006 89.9303 18.929 89.9303 18.6129C89.9303 18.3004 90.0492 18.0323 90.2872 17.8086C90.5286 17.5813 90.8181 17.4677 91.1554 17.4677C91.4928 17.4677 91.7804 17.5813 92.0183 17.8086C92.2598 18.0323 92.3806 18.3004 92.3806 18.6129C92.3806 18.929 92.2598 19.2006 92.0183 19.4279C91.7804 19.6516 91.4928 19.7635 91.1554 19.7635ZM96.2216 24.2699V29H93.9524V20.8182H96.1151V22.2617H96.2109C96.392 21.7859 96.6957 21.4094 97.1218 21.1325C97.5479 20.8519 98.0646 20.7116 98.6719 20.7116C99.2401 20.7116 99.7354 20.8359 100.158 21.0845C100.581 21.3331 100.909 21.6882 101.143 22.1499C101.378 22.608 101.495 23.1548 101.495 23.7905V29H99.2259V24.1953C99.2294 23.6946 99.1016 23.304 98.8423 23.0234C98.5831 22.7393 98.2262 22.5973 97.7717 22.5973C97.4663 22.5973 97.1964 22.663 96.962 22.7944C96.7312 22.9258 96.5501 23.1175 96.4187 23.3697C96.2908 23.6183 96.2251 23.9183 96.2216 24.2699ZM105.467 29.1545C104.945 29.1545 104.479 29.0639 104.071 28.8828C103.663 28.6982 103.339 28.4265 103.102 28.0678C102.867 27.7056 102.75 27.2546 102.75 26.7148C102.75 26.2603 102.833 25.8786 103 25.5696C103.167 25.2607 103.394 25.0121 103.682 24.8239C103.97 24.6357 104.296 24.4936 104.662 24.3977C105.032 24.3018 105.419 24.2344 105.823 24.1953C106.299 24.1456 106.683 24.0994 106.974 24.0568C107.265 24.0107 107.477 23.9432 107.608 23.8544C107.739 23.7656 107.805 23.6342 107.805 23.4602V23.4283C107.805 23.0909 107.698 22.8299 107.485 22.6452C107.276 22.4606 106.978 22.3683 106.59 22.3683C106.182 22.3683 105.857 22.4588 105.616 22.6399C105.374 22.8175 105.214 23.0412 105.136 23.3111L103.038 23.1406C103.144 22.6435 103.354 22.2138 103.666 21.8516C103.979 21.4858 104.382 21.2053 104.875 21.0099C105.372 20.8111 105.948 20.7116 106.601 20.7116C107.056 20.7116 107.491 20.7649 107.906 20.8714C108.325 20.978 108.696 21.1431 109.019 21.3668C109.346 21.5906 109.604 21.8782 109.792 22.2298C109.98 22.5778 110.074 22.995 110.074 23.4815V29H107.922V27.8654H107.858C107.727 28.1211 107.551 28.3466 107.331 28.5419C107.111 28.7337 106.846 28.8846 106.537 28.9947C106.228 29.1012 105.871 29.1545 105.467 29.1545ZM106.116 27.5884C106.45 27.5884 106.745 27.5227 107.001 27.3913C107.256 27.2564 107.457 27.0753 107.603 26.848C107.748 26.6207 107.821 26.3633 107.821 26.0756V25.2074C107.75 25.2536 107.652 25.2962 107.528 25.3352C107.407 25.3707 107.271 25.4045 107.118 25.4364C106.965 25.4648 106.812 25.4915 106.66 25.5163C106.507 25.5376 106.369 25.5572 106.244 25.5749C105.978 25.614 105.745 25.6761 105.546 25.7614C105.348 25.8466 105.193 25.962 105.083 26.1076C104.973 26.2496 104.918 26.4272 104.918 26.6403C104.918 26.9492 105.03 27.1854 105.253 27.3487C105.481 27.5085 105.768 27.5884 106.116 27.5884ZM120.413 32.0682V27.6896H120.344C120.237 27.9169 120.086 28.1424 119.891 28.3661C119.699 28.5863 119.449 28.7692 119.14 28.9148C118.834 29.0604 118.462 29.1332 118.021 29.1332C117.4 29.1332 116.837 28.9734 116.333 28.6538C115.832 28.3306 115.434 27.8565 115.139 27.2315C114.848 26.603 114.703 25.8324 114.703 24.9197C114.703 23.9822 114.854 23.2028 115.155 22.5813C115.457 21.9563 115.859 21.4893 116.359 21.1804C116.864 20.8679 117.416 20.7116 118.016 20.7116C118.474 20.7116 118.856 20.7898 119.161 20.946C119.47 21.0987 119.719 21.2905 119.907 21.5213C120.099 21.7486 120.244 21.9723 120.344 22.1925H120.44V20.8182H122.677V32.0682H120.413ZM118.74 27.3274C119.106 27.3274 119.415 27.228 119.667 27.0291C119.923 26.8267 120.118 26.5444 120.253 26.1822C120.392 25.82 120.461 25.3956 120.461 24.9091C120.461 24.4226 120.393 24 120.258 23.6413C120.124 23.2827 119.928 23.0057 119.673 22.8104C119.417 22.6151 119.106 22.5174 118.74 22.5174C118.367 22.5174 118.053 22.6186 117.798 22.821C117.542 23.0234 117.348 23.304 117.217 23.6626C117.086 24.0213 117.02 24.4368 117.02 24.9091C117.02 25.3849 117.086 25.8058 117.217 26.1715C117.352 26.5337 117.545 26.8178 117.798 27.0238C118.053 27.2262 118.367 27.3274 118.74 27.3274ZM128.045 29.1598C127.218 29.1598 126.502 28.984 125.899 28.6325C125.298 28.2773 124.835 27.7837 124.508 27.1516C124.182 26.516 124.018 25.7791 124.018 24.9411C124.018 24.0959 124.182 23.3572 124.508 22.7251C124.835 22.0895 125.298 21.5959 125.899 21.2443C126.502 20.8892 127.218 20.7116 128.045 20.7116C128.873 20.7116 129.586 20.8892 130.187 21.2443C130.79 21.5959 131.255 22.0895 131.582 22.7251C131.909 23.3572 132.072 24.0959 132.072 24.9411C132.072 25.7791 131.909 26.516 131.582 27.1516C131.255 27.7837 130.79 28.2773 130.187 28.6325C129.586 28.984 128.873 29.1598 128.045 29.1598ZM128.056 27.402C128.432 27.402 128.747 27.2955 128.999 27.0824C129.251 26.8658 129.441 26.571 129.569 26.1982C129.7 25.8253 129.766 25.4009 129.766 24.9251C129.766 24.4492 129.7 24.0249 129.569 23.652C129.441 23.2791 129.251 22.9844 128.999 22.7678C128.747 22.5511 128.432 22.4428 128.056 22.4428C127.676 22.4428 127.356 22.5511 127.097 22.7678C126.841 22.9844 126.648 23.2791 126.516 23.652C126.389 24.0249 126.325 24.4492 126.325 24.9251C126.325 25.4009 126.389 25.8253 126.516 26.1982C126.648 26.571 126.841 26.8658 127.097 27.0824C127.356 27.2955 127.676 27.402 128.056 27.402ZM132.38 21.5V20.3494C132.38 20.0227 132.444 19.6889 132.572 19.348C132.7 19.0071 132.869 18.6857 133.078 18.3839C133.288 18.082 133.515 17.8299 133.76 17.6275L134.761 18.2188C134.563 18.5312 134.399 18.858 134.271 19.1989C134.147 19.5398 134.085 19.9197 134.085 20.3388V21.5H132.38ZM142.751 23.1513L140.673 23.2791C140.638 23.1016 140.561 22.9418 140.444 22.7997C140.327 22.6541 140.172 22.5387 139.981 22.4535C139.792 22.3647 139.567 22.3203 139.304 22.3203C138.953 22.3203 138.656 22.3949 138.415 22.544C138.173 22.6896 138.052 22.8849 138.052 23.13C138.052 23.3253 138.131 23.4904 138.287 23.6254C138.443 23.7603 138.711 23.8686 139.091 23.9503L140.572 24.2486C141.367 24.4119 141.96 24.6747 142.351 25.0369C142.742 25.3991 142.937 25.875 142.937 26.4645C142.937 27.0007 142.779 27.4712 142.463 27.8761C142.15 28.2809 141.721 28.5969 141.174 28.8242C140.631 29.0479 140.004 29.1598 139.294 29.1598C138.21 29.1598 137.348 28.9343 136.705 28.4833C136.066 28.0288 135.691 27.4109 135.581 26.6296L137.813 26.5124C137.88 26.8427 138.044 27.0948 138.303 27.2688C138.562 27.4393 138.894 27.5245 139.299 27.5245C139.697 27.5245 140.016 27.4482 140.258 27.2955C140.503 27.1392 140.627 26.9386 140.631 26.6935C140.627 26.4876 140.54 26.3189 140.37 26.1875C140.199 26.0526 139.936 25.9496 139.581 25.8786L138.164 25.5962C137.365 25.4364 136.77 25.1594 136.38 24.7653C135.993 24.3711 135.799 23.8686 135.799 23.2578C135.799 22.7322 135.941 22.2795 136.225 21.8995C136.513 21.5195 136.916 21.2266 137.435 21.0206C137.957 20.8146 138.567 20.7116 139.267 20.7116C140.3 20.7116 141.113 20.93 141.707 21.3668C142.303 21.8036 142.651 22.3984 142.751 23.1513ZM146.485 24.2699V29H144.216V18.0909H146.421V22.2617H146.517C146.702 21.7788 147 21.4006 147.412 21.1271C147.824 20.8501 148.341 20.7116 148.962 20.7116C149.53 20.7116 150.026 20.8359 150.448 21.0845C150.874 21.3295 151.205 21.6829 151.439 22.1445C151.677 22.6026 151.794 23.1513 151.79 23.7905V29H149.521V24.1953C149.525 23.6911 149.397 23.2987 149.138 23.0181C148.882 22.7376 148.523 22.5973 148.062 22.5973C147.753 22.5973 147.479 22.663 147.241 22.7944C147.007 22.9258 146.822 23.1175 146.687 23.3697C146.556 23.6183 146.489 23.9183 146.485 24.2699ZM153.426 29V20.8182H155.695V29H153.426ZM154.566 19.7635C154.229 19.7635 153.939 19.6516 153.698 19.4279C153.46 19.2006 153.341 18.929 153.341 18.6129C153.341 18.3004 153.46 18.0323 153.698 17.8086C153.939 17.5813 154.229 17.4677 154.566 17.4677C154.904 17.4677 155.191 17.5813 155.429 17.8086C155.671 18.0323 155.791 18.3004 155.791 18.6129C155.791 18.929 155.671 19.2006 155.429 19.4279C155.191 19.6516 154.904 19.7635 154.566 19.7635ZM164.171 23.1513L162.093 23.2791C162.058 23.1016 161.981 22.9418 161.864 22.7997C161.747 22.6541 161.593 22.5387 161.401 22.4535C161.213 22.3647 160.987 22.3203 160.724 22.3203C160.373 22.3203 160.076 22.3949 159.835 22.544C159.593 22.6896 159.473 22.8849 159.473 23.13C159.473 23.3253 159.551 23.4904 159.707 23.6254C159.863 23.7603 160.131 23.8686 160.511 23.9503L161.992 24.2486C162.788 24.4119 163.381 24.6747 163.771 25.0369C164.162 25.3991 164.357 25.875 164.357 26.4645C164.357 27.0007 164.199 27.4712 163.883 27.8761C163.571 28.2809 163.141 28.5969 162.594 28.8242C162.051 29.0479 161.424 29.1598 160.714 29.1598C159.631 29.1598 158.768 28.9343 158.125 28.4833C157.486 28.0288 157.111 27.4109 157.001 26.6296L159.233 26.5124C159.3 26.8427 159.464 27.0948 159.723 27.2688C159.982 27.4393 160.314 27.5245 160.719 27.5245C161.117 27.5245 161.436 27.4482 161.678 27.2955C161.923 27.1392 162.047 26.9386 162.051 26.6935C162.047 26.4876 161.96 26.3189 161.79 26.1875C161.619 26.0526 161.356 25.9496 161.001 25.8786L159.584 25.5962C158.785 25.4364 158.191 25.1594 157.8 24.7653C157.413 24.3711 157.219 23.8686 157.219 23.2578C157.219 22.7322 157.361 22.2795 157.645 21.8995C157.933 21.5195 158.336 21.2266 158.855 21.0206C159.377 20.8146 159.987 20.7116 160.687 20.7116C161.72 20.7116 162.534 20.93 163.127 21.3668C163.723 21.8036 164.071 22.3984 164.171 23.1513ZM167.905 24.2699V29H165.636V18.0909H167.841V22.2617H167.937C168.122 21.7788 168.42 21.4006 168.832 21.1271C169.244 20.8501 169.761 20.7116 170.382 20.7116C170.95 20.7116 171.446 20.8359 171.868 21.0845C172.294 21.3295 172.625 21.6829 172.859 22.1445C173.097 22.6026 173.214 23.1513 173.211 23.7905V29H170.941V24.1953C170.945 23.6911 170.817 23.2987 170.558 23.0181C170.302 22.7376 169.944 22.5973 169.482 22.5973C169.173 22.5973 168.9 22.663 168.662 22.7944C168.427 22.9258 168.243 23.1175 168.108 23.3697C167.976 23.6183 167.909 23.9183 167.905 24.2699Z" fill="#FCFCFC"/>
</svg>
