<svg width="24" height="24" viewBox="0 0 24 24" fill="none" xmlns="http://www.w3.org/2000/svg">
<path fill-rule="evenodd" clip-rule="evenodd" d="M8.06567 6.0256C6.21318 7.28671 5 9.41159 5 11.8167C5 15.6827 8.13401 18.8167 12 18.8167C14.4051 18.8167 16.5299 17.6035 17.7911 15.751C12.6817 15.1925 8.62421 11.1349 8.06567 6.0256ZM19 13.8167C19.866 13.8167 20.6118 14.5799 20.2691 15.3753C18.8898 18.576 15.7066 20.8167 12 20.8167C7.02944 20.8167 3 16.7872 3 11.8167C3 8.11009 5.24067 4.92685 8.4414 3.54758C9.23674 3.20485 10 3.95063 10 4.81667C10 9.78724 14.0294 13.8167 19 13.8167Z" fill="#6F767E"/>
</svg>
